<svg xmlns="http://www.w3.org/2000/svg" version="1.1" xmlns:xlink="http://www.w3.org/1999/xlink" xmlns:svgjs="http://svgjs.com/svgjs" width="512" height="512" x="0" y="0" viewBox="0 0 512 512" style="enable-background:new 0 0 512 512" xml:space="preserve" class=""><g><path d="M487.456 332.864c-16.608.16-29.792-1.152-39.232-3.84-28.544-8.16-37.376-19.84-37.376-19.84-2.016-3.008-5.536-4.64-9.152-4.128a9.49 9.49 0 0 0-7.744 6.368c-.128.384-13.568 39.264-47.392 56.16-35.104 17.568-98.752 13.28-99.392 13.248-3.456-.32-6.528 1.28-8.416 4a9.455 9.455 0 0 0-.928 9.28l48.832 110.656a9.471 9.471 0 0 0 8.672 5.664c.48 0 .992-.032 1.504-.128 91.264-14.656 167.744-77.76 199.616-164.704 1.088-2.912.64-6.176-1.152-8.736-1.792-2.496-4.928-4.192-7.84-4z" style="" fill="#4caf50" data-original="#4caf50" class=""></path><path d="M256 1.568c-141.152 0-256 114.848-256 256C0 369.472 74.72 470.24 181.728 502.624a8.972 8.972 0 0 0 2.752.416 9.458 9.458 0 0 0 6.976-3.072 9.483 9.483 0 0 0 1.824-9.92c-100.896-254.4-119.168-313.6-122.048-327.232 13.6-7.168 59.168-17.088 71.264-15.104 3.552 5.088 10.912 23.072 17.44 39.072 24.8 60.672 62.272 152.384 114.336 156.096 36.96 2.656 70.208-11.36 89.248-37.408 11.552-15.84 15.488-33.728 10.304-46.688-7.904-19.712-44.288-102.752-57.216-132.224l57.024-14.272c12.448 29.6 57.6 135.232 78.912 160.832 9.312 11.136 25.312 17.984 47.552 20.288 5.28.448 9.856-3.232 10.4-8.416 1.024-9.024 1.504-18.272 1.504-27.424 0-141.152-114.848-256-256-256z" style="" fill="#4caf50" data-original="#4caf50" class=""></path></g></svg>